<svg width="702.147" height="194.373" viewBox="0 0 526.61 145.78" class="displayed_equation" xmlns="http://www.w3.org/2000/svg" xmlns:xlink="http://www.w3.org/1999/xlink">
  <defs>
    <clipPath id="svg307125379850tikz_00008b">
      <path d="M 1 0.0859375 L 8 0.0859375 L 8 6 L 1 6 Z M 1 0.0859375" />
    </clipPath>
    <clipPath id="svg307125379850tikz_00008a">
      <path d="M0 0H9V7H0z" />
    </clipPath>
    <g id="svg307125379850tikz_00008s" clip-path="url(#svg307125379850tikz_00008a)">
      <path d="M 1.53125 3.082031 L 7 5.144531 L 5.195313 3.082031 L 7 1.019531" />
      <g clip-path="url(#svg307125379850tikz_00008b)">
        <path d="M 135.3125 376.979687 L 190 356.354687 L 171.953125 376.979687 L 190 397.604687 Z M 135.3125 376.979687" transform="matrix(.1 0 0 -.1 -12 40.78)" fill="none" stroke-width="7.97" stroke-linecap="round" stroke-linejoin="round" stroke="#000" stroke-miterlimit="10" />
      </g>
    </g>
    <clipPath id="svg307125379850tikz_00008d">
      <path d="M 1 0.0859375 L 8 0.0859375 L 8 6 L 1 6 Z M 1 0.0859375" />
    </clipPath>
    <clipPath id="svg307125379850tikz_00008c">
      <path d="M0 0H9V7H0z" />
    </clipPath>
    <g id="svg307125379850tikz_00008t" clip-path="url(#svg307125379850tikz_00008c)">
      <path d="M 7.355469 3.082031 L 1.886719 1.019531 L 3.6875 3.082031 L 1.886719 5.144531" />
      <g clip-path="url(#svg307125379850tikz_00008d)">
        <path d="M 1643.554688 376.979687 L 1588.867188 397.604687 L 1606.875 376.979687 L 1588.867188 356.354687 Z M 1643.554688 376.979687" transform="matrix(.1 0 0 -.1 -157 40.78)" fill="none" stroke-width="7.97" stroke-linecap="round" stroke-linejoin="round" stroke="#000" stroke-miterlimit="10" />
      </g>
    </g>
    <clipPath id="svg307125379850tikz_00008f">
      <path d="M 1 1 L 6.941406 1 L 6.941406 8 L 1 8 Z M 1 1" />
    </clipPath>
    <clipPath id="svg307125379850tikz_00008e">
      <path d="M0 0H7V9H0z" />
    </clipPath>
    <g clip-path="url(#svg307125379850tikz_00008e)">
      <g clip-path="url(#svg307125379850tikz_00008f)" id="svg307125379850tikz_00008u">
        <path d="M 3.941406 1.535156 L 1.878906 7.003906 L 3.941406 5.199219 L 6.007813 7.003906" />
        <path d="M 889.414063 1322.448438 L 868.789063 1267.760938 L 889.414063 1285.807813 L 910.078125 1267.760938 Z M 889.414063 1322.448438" transform="matrix(.1 0 0 -.1 -85 133.78)" fill="none" stroke-width="7.97" stroke-linecap="round" stroke-linejoin="round" stroke="#000" stroke-miterlimit="10" />
      </g>
    </g>
    <clipPath id="svg307125379850tikz_00008h">
      <path d="M 1 0.0859375 L 8 0.0859375 L 8 6 L 1 6 Z M 1 0.0859375" />
    </clipPath>
    <clipPath id="svg307125379850tikz_00008g">
      <path d="M0 0H9V7H0z" />
    </clipPath>
    <g id="svg307125379850tikz_00008v" clip-path="url(#svg307125379850tikz_00008g)">
      <path d="M 1.761719 3.082031 L 7.230469 5.144531 L 5.421875 3.082031 L 7.230469 1.019531" />
      <g clip-path="url(#svg307125379850tikz_00008h)">
        <path d="M 1857.617188 376.979687 L 1912.304688 356.354687 L 1894.21875 376.979687 L 1912.304688 397.604687 Z M 1857.617188 376.979687" transform="matrix(.1 0 0 -.1 -184 40.78)" fill="none" stroke-width="7.97" stroke-linecap="round" stroke-linejoin="round" stroke="#000" stroke-miterlimit="10" />
      </g>
    </g>
    <clipPath id="svg307125379850tikz_00008j">
      <path d="M 1 0.0859375 L 8 0.0859375 L 8 6 L 1 6 Z M 1 0.0859375" />
    </clipPath>
    <clipPath id="svg307125379850tikz_00008i">
      <path d="M0 0H9V7H0z" />
    </clipPath>
    <g id="svg307125379850tikz_00008w" clip-path="url(#svg307125379850tikz_00008i)">
      <path d="M 7.578125 3.082031 L 2.113281 1.019531 L 3.917969 3.082031 L 2.113281 5.144531" />
      <g clip-path="url(#svg307125379850tikz_00008j)">
        <path d="M 3365.78125 376.979687 L 3311.132813 397.604687 L 3329.179688 376.979687 L 3311.132813 356.354687 Z M 3365.78125 376.979687" transform="matrix(.1 0 0 -.1 -329 40.78)" fill="none" stroke-width="7.97" stroke-linecap="round" stroke-linejoin="round" stroke="#000" stroke-miterlimit="10" />
      </g>
    </g>
    <clipPath id="svg307125379850tikz_00008l">
      <path d="M 0.171875 1 L 6 1 L 6 8 L 0.171875 8 Z M 0.171875 1" />
    </clipPath>
    <clipPath id="svg307125379850tikz_00008k">
      <path d="M0 0H7V9H0z" />
    </clipPath>
    <g id="svg307125379850tikz_00008x" clip-path="url(#svg307125379850tikz_00008k)">
      <path d="M 3.171875 1.535156 L 1.105469 7.003906 L 3.171875 5.199219 L 5.234375 7.003906" />
      <g clip-path="url(#svg307125379850tikz_00008l)">
        <path d="M 2611.71875 1322.448438 L 2591.054688 1267.760938 L 2611.71875 1285.807813 L 2632.34375 1267.760938 Z M 2611.71875 1322.448438" transform="matrix(.1 0 0 -.1 -258 133.78)" fill="none" stroke-width="7.97" stroke-linecap="round" stroke-linejoin="round" stroke="#000" stroke-miterlimit="10" />
      </g>
    </g>
    <clipPath id="svg307125379850tikz_00008n">
      <path d="M 1 0.0859375 L 8 0.0859375 L 8 6 L 1 6 Z M 1 0.0859375" />
    </clipPath>
    <clipPath id="svg307125379850tikz_00008m">
      <path d="M0 0H9V7H0z" />
    </clipPath>
    <g id="svg307125379850tikz_00008y" clip-path="url(#svg307125379850tikz_00008m)">
      <path d="M 1.988281 3.082031 L 7.453125 5.144531 L 5.652344 3.082031 L 7.453125 1.019531" />
      <g clip-path="url(#svg307125379850tikz_00008n)">
        <path d="M 3579.882813 376.979687 L 3634.53125 356.354687 L 3616.523438 376.979687 L 3634.53125 397.604687 Z M 3579.882813 376.979687" transform="matrix(.1 0 0 -.1 -356 40.78)" fill="none" stroke-width="7.97" stroke-linecap="round" stroke-linejoin="round" stroke="#000" stroke-miterlimit="10" />
      </g>
    </g>
    <clipPath id="svg307125379850tikz_00008p">
      <path d="M 1 0.0859375 L 8.9375 0.0859375 L 8.9375 6 L 1 6 Z M 1 0.0859375" />
    </clipPath>
    <clipPath id="svg307125379850tikz_00008o">
      <path d="M0 0H9V7H0z" />
    </clipPath>
    <g id="svg307125379850tikz_00008z" clip-path="url(#svg307125379850tikz_00008o)">
      <path d="M 7.808594 3.082031 L 2.339844 1.019531 L 4.144531 3.082031 L 2.339844 5.144531" />
      <g clip-path="url(#svg307125379850tikz_00008p)">
        <path d="M 5088.085938 376.979687 L 5033.398438 397.604687 L 5051.445313 376.979687 L 5033.398438 356.354687 Z M 5088.085938 376.979687" transform="matrix(.1 0 0 -.1 -501 40.78)" fill="none" stroke-width="7.97" stroke-linecap="round" stroke-linejoin="round" stroke="#000" stroke-miterlimit="10" />
      </g>
    </g>
    <clipPath id="svg307125379850tikz_00008r">
      <path d="M 0.398438 1 L 6 1 L 6 8 L 0.398438 8 Z M 0.398438 1" />
    </clipPath>
    <clipPath id="svg307125379850tikz_00008q">
      <path d="M0 0H7V9H0z" />
    </clipPath>
    <g id="svg307125379850tikz_00008A" clip-path="url(#svg307125379850tikz_00008q)">
      <path d="M 3.398438 1.535156 L 1.335938 7.003906 L 3.398438 5.199219 L 5.460938 7.003906" />
      <g clip-path="url(#svg307125379850tikz_00008r)">
        <path d="M 4333.984375 1322.448438 L 4313.359375 1267.760938 L 4333.984375 1285.807813 L 4354.609375 1267.760938 Z M 4333.984375 1322.448438" transform="matrix(.1 0 0 -.1 -430 133.78)" fill="none" stroke-width="7.97" stroke-linecap="round" stroke-linejoin="round" stroke="#000" stroke-miterlimit="10" />
      </g>
    </g>
  </defs>
  <path d="M 31.535156 108.082031 L 31.535156 107.230469 L 32.421875 107.105469 L 33.3125 106.964844 L 34.203125 106.800781 L 35.089844 106.621094 L 35.980469 106.421875 L 36.867188 106.195313 L 37.757813 105.941406 L 38.648438 105.660156 L 39.535156 105.351563 L 40.425781 105.003906 L 41.316406 104.625 L 42.203125 104.203125 L 43.09375 103.742188 L 43.980469 103.238281 L 44.871094 102.683594 L 45.761719 102.082031 L 46.648438 101.425781 L 47.539063 100.714844 L 48.425781 99.941406 L 49.316406 99.113281 L 50.207031 98.214844 L 51.09375 97.253906 L 51.984375 96.226563 L 52.871094 95.125 L 53.761719 93.957031 L 54.652344 92.710938 L 55.539063 91.398438 L 56.429688 90.007813 L 57.320313 88.542969 L 58.207031 87.003906 L 59.097656 85.398438 L 59.984375 83.71875 L 60.875 81.972656 L 61.765625 80.160156 L 62.652344 78.289063 L 63.542969 76.359375 L 64.433594 74.378906 L 65.320313 72.351563 L 66.210938 70.28125 L 67.097656 68.179688 L 67.988281 66.050781 L 68.878906 63.90625 L 69.765625 61.75 L 70.65625 59.59375 L 71.542969 57.445313 L 72.433594 55.320313 L 73.324219 53.21875 L 74.210938 51.164063 L 75.101563 49.152344 L 75.992188 47.207031 L 76.878906 45.328125 L 77.769531 43.535156 L 78.65625 41.828125 L 79.546875 40.226563 L 80.4375 38.734375 L 81.324219 37.367188 L 82.214844 36.125 L 83.101563 35.019531 L 83.992188 34.054688 L 84.882813 33.242188 L 85.769531 32.578125 L 86.660156 32.078125 L 87.550781 31.738281 L 88.4375 31.566406 L 89.328125 31.554688 L 90.21875 31.707031 L 91.105469 32.027344 L 91.996094 32.503906 L 92.882813 33.140625 L 93.773438 33.9375 L 94.664063 34.878906 L 95.550781 35.96875 L 96.441406 37.191406 L 97.328125 38.542969 L 98.21875 40.019531 L 99.109375 41.605469 L 99.996094 43.296875 L 100.886719 45.078125 L 101.773438 46.949219 L 102.664063 48.886719 L 103.554688 50.890625 L 104.441406 52.941406 L 105.332031 55.035156 L 106.222656 57.15625 L 107.109375 59.304688 L 108 61.460938 L 108.886719 63.613281 L 109.777344 65.765625 L 110.667969 67.894531 L 111.554688 70 L 112.445313 72.074219 L 113.335938 74.105469 L 114.222656 76.09375 L 115.113281 78.03125 L 116.003906 79.910156 L 116.890625 81.730469 L 117.78125 83.488281 L 118.667969 85.175781 L 119.558594 86.792969 L 119.5625 108.082031" fill="#fbc04f" fill-opacity=".8" />
  <path d="M 173.945313 376.979687 L 1604.882813 376.979687" transform="matrix(.1 0 0 -.1 0 145.78)" fill="none" stroke-width="7.97" stroke-linecap="round" stroke-linejoin="round" stroke="#000" stroke-miterlimit="10" />
  <use xlink:href="#svg307125379850tikz_00008s" transform="translate(12 105)" />
  <use xlink:href="#svg307125379850tikz_00008t" transform="translate(157 105)" />
  <path d="M 889.414063 329.128125 L 889.414063 1283.815625" transform="matrix(.1 0 0 -.1 0 145.78)" fill="none" stroke-width="7.97" stroke-linecap="round" stroke-linejoin="round" stroke="#000" stroke-miterlimit="10" />
  <use xlink:href="#svg307125379850tikz_00008u" transform="translate(85 12)" />
  <path d="M 91.421875 120.644531 C 91.421875 118.34375 90.417969 117.015625 88.976563 117.015625 C 87.359375 117.015625 86.5 118.492188 86.5 120.609375 C 86.5 122.585938 87.160156 124.304688 88.957031 124.304688 C 90.707031 124.304688 91.421875 122.550781 91.421875 120.644531 Z M 90.339844 120.710938 C 90.339844 122.851563 89.835938 123.898438 88.957031 123.898438 C 88.0625 123.898438 87.570313 122.828125 87.570313 120.664063 C 87.570313 118.457031 88.0625 117.398438 88.945313 117.398438 C 89.859375 117.398438 90.339844 118.445313 90.339844 120.710938" />
  <path d="M 315.351563 358.425 L 315.351563 395.534375" transform="matrix(.1 0 0 -.1 0 145.78)" fill="none" stroke-width="7.97" stroke-linecap="round" stroke-linejoin="round" stroke="#000" stroke-miterlimit="10" />
  <path d="M25.390625 118.167969L32.039063 118.167969 32.039063 117.410156 25.390625 117.410156zM33.757813 115.125C34.140625 114.53125 34.550781 114.21875 35.21875 114.21875 35.914063 114.21875 36.359375 114.601563 36.359375 115.257813 36.359375 116.160156 35.566406 116.773438 34.808594 116.773438L34.597656 116.773438 34.597656 117.199219 34.820313 117.199219C35.890625 117.199219 36.839844 117.859375 36.839844 118.851563 36.839844 119.945313 36.15625 120.265625 35.453125 120.265625 35.1875 120.265625 35.03125 120.222656 34.550781 119.976563 34.160156 119.777344 34.070313 119.71875 33.894531 119.71875 33.601563 119.71875 33.457031 119.976563 33.457031 120.210938 33.457031 120.5 33.703125 120.824219 34.707031 120.824219 36.335938 120.824219 37.753906 120.042969 37.753906 118.515625 37.753906 117.523438 37.007813 116.929688 36.113281 116.652344L36.113281 116.617188C36.816406 116.171875 37.320313 115.757813 37.320313 114.992188 37.320313 114.140625 36.660156 113.496094 35.523438 113.496094 34.609375 113.496094 33.914063 114.007813 33.503906 114.976563L33.757813 115.125" />
  <path d="M 506.71875 358.425 L 506.71875 395.534375" transform="matrix(.1 0 0 -.1 0 145.78)" fill="none" stroke-width="7.97" stroke-linecap="round" stroke-linejoin="round" stroke="#000" stroke-miterlimit="10" />
  <path d="M44.59375 118.167969L51.242188 118.167969 51.242188 117.410156 44.59375 117.410156zM57.078125 118.894531L56.753906 118.894531C56.496094 119.5625 56.351563 119.796875 55.757813 119.796875L54.210938 119.796875 53.429688 119.832031 53.429688 119.777344 54.902344 118.382813C56.085938 117.1875 56.71875 116.417969 56.71875 115.425781 56.71875 114.253906 55.835938 113.496094 54.578125 113.496094 53.496094 113.496094 52.738281 114.121094 52.390625 115.203125L52.660156 115.3125C53.070313 114.476563 53.5625 114.21875 54.289063 114.21875 55.148438 114.21875 55.679688 114.757813 55.679688 115.59375 55.679688 116.765625 55.125 117.46875 54.019531 118.605469L52.324219 120.300781 52.324219 120.679688 56.71875 120.679688 57.078125 118.894531" />
  <path d="M 698.085938 358.425 L 698.085938 395.534375" transform="matrix(.1 0 0 -.1 0 145.78)" fill="none" stroke-width="7.97" stroke-linecap="round" stroke-linejoin="round" stroke="#000" stroke-miterlimit="10" />
  <path d="M63.691406 118.167969L70.339844 118.167969 70.339844 117.410156 63.691406 117.410156zM75.851563 120.679688L75.851563 120.367188C74.828125 120.367188 74.414063 120.167969 74.414063 119.621094L74.414063 113.550781 74.089844 113.550781 71.925781 114.164063 71.925781 114.53125C72.273438 114.421875 72.839844 114.355469 73.0625 114.355469 73.34375 114.355469 73.429688 114.511719 73.429688 114.898438L73.429688 119.621094C73.429688 120.179688 73.039063 120.367188 71.992188 120.367188L71.992188 120.679688 75.851563 120.679688" />
  <path d="M 1080.78125 358.425 L 1080.78125 395.534375" transform="matrix(.1 0 0 -.1 0 145.78)" fill="none" stroke-width="7.97" stroke-linecap="round" stroke-linejoin="round" stroke="#000" stroke-miterlimit="10" />
  <path d="M 110.054688 120.679688 L 110.054688 120.367188 C 109.027344 120.367188 108.613281 120.167969 108.613281 119.621094 L 108.613281 113.550781 L 108.289063 113.550781 L 106.125 114.164063 L 106.125 114.53125 C 106.472656 114.421875 107.039063 114.355469 107.265625 114.355469 C 107.542969 114.355469 107.632813 114.511719 107.632813 114.898438 L 107.632813 119.621094 C 107.632813 120.179688 107.242188 120.367188 106.191406 120.367188 L 106.191406 120.679688 L 110.054688 120.679688" />
  <path d="M 1272.148438 358.425 L 1272.148438 395.534375" transform="matrix(.1 0 0 -.1 0 145.78)" fill="none" stroke-width="7.97" stroke-linecap="round" stroke-linejoin="round" stroke="#000" stroke-miterlimit="10" />
  <path d="M 129.578125 118.894531 L 129.253906 118.894531 C 128.996094 119.5625 128.851563 119.796875 128.257813 119.796875 L 126.710938 119.796875 L 125.929688 119.832031 L 125.929688 119.777344 L 127.402344 118.382813 C 128.585938 117.1875 129.21875 116.417969 129.21875 115.425781 C 129.21875 114.253906 128.339844 113.496094 127.078125 113.496094 C 125.996094 113.496094 125.238281 114.121094 124.890625 115.203125 L 125.160156 115.3125 C 125.570313 114.476563 126.0625 114.21875 126.789063 114.21875 C 127.648438 114.21875 128.179688 114.757813 128.179688 115.59375 C 128.179688 116.765625 127.621094 117.46875 126.519531 118.605469 L 124.824219 120.300781 L 124.824219 120.679688 L 129.21875 120.679688 L 129.578125 118.894531" />
  <path d="M 1463.515625 358.425 L 1463.515625 395.534375" transform="matrix(.1 0 0 -.1 0 145.78)" fill="none" stroke-width="7.97" stroke-linecap="round" stroke-linejoin="round" stroke="#000" stroke-miterlimit="10" />
  <path d="M 144.558594 115.125 C 144.9375 114.53125 145.351563 114.21875 146.019531 114.21875 C 146.714844 114.21875 147.160156 114.601563 147.160156 115.257813 C 147.160156 116.160156 146.367188 116.773438 145.609375 116.773438 L 145.398438 116.773438 L 145.398438 117.199219 L 145.617188 117.199219 C 146.691406 117.199219 147.640625 117.859375 147.640625 118.851563 C 147.640625 119.945313 146.957031 120.265625 146.253906 120.265625 C 145.988281 120.265625 145.832031 120.222656 145.351563 119.976563 C 144.960938 119.777344 144.871094 119.71875 144.695313 119.71875 C 144.402344 119.71875 144.257813 119.976563 144.257813 120.210938 C 144.257813 120.5 144.503906 120.824219 145.507813 120.824219 C 147.136719 120.824219 148.554688 120.042969 148.554688 118.515625 C 148.554688 117.523438 147.804688 116.929688 146.914063 116.652344 L 146.914063 116.617188 C 147.617188 116.171875 148.117188 115.757813 148.117188 114.992188 C 148.117188 114.140625 147.460938 113.496094 146.320313 113.496094 C 145.40625 113.496094 144.714844 114.007813 144.304688 114.976563 L 144.558594 115.125" />
  <path d="M 870.859375 568.346875 L 907.96875 568.346875" transform="matrix(.1 0 0 -.1 0 145.78)" fill="none" stroke-width="7.97" stroke-linecap="round" stroke-linejoin="round" stroke="#000" stroke-miterlimit="10" />
  <path d="M74.921875 88.945313C74.921875 86.644531 73.917969 85.316406 72.476563 85.316406 70.859375 85.316406 70 86.789063 70 88.910156 70 90.882813 70.660156 92.601563 72.457031 92.601563 74.207031 92.601563 74.921875 90.851563 74.921875 88.945313zM73.839844 89.007813C73.839844 91.152344 73.335938 92.199219 72.457031 92.199219 71.5625 92.199219 71.070313 91.128906 71.070313 88.964844 71.070313 86.757813 71.5625 85.695313 72.445313 85.695313 73.359375 85.695313 73.839844 86.746094 73.839844 89.007813M77.328125 91.933594C77.328125 91.566406 77.097656 91.242188 76.671875 91.242188 76.257813 91.242188 76.015625 91.554688 76.015625 91.921875 76.015625 92.300781 76.226563 92.570313 76.660156 92.570313 77.097656 92.570313 77.328125 92.277344 77.328125 91.933594M82.753906 92.480469L82.753906 92.167969C81.726563 92.167969 81.3125 91.96875 81.3125 91.421875L81.3125 85.351563 80.992188 85.351563 78.824219 85.964844 78.824219 86.332031C79.171875 86.21875 79.742188 86.15625 79.964844 86.15625 80.242188 86.15625 80.332031 86.3125 80.332031 86.699219L80.332031 91.421875C80.332031 91.976563 79.941406 92.167969 78.890625 92.167969L78.890625 92.480469 82.753906 92.480469" />
  <path d="M 870.859375 759.714062 L 907.96875 759.714062" transform="matrix(.1 0 0 -.1 0 145.78)" fill="none" stroke-width="7.97" stroke-linecap="round" stroke-linejoin="round" stroke="#000" stroke-miterlimit="10" />
  <path d="M74.921875 69.84375C74.921875 67.546875 73.917969 66.21875 72.476563 66.21875 70.859375 66.21875 70 67.691406 70 69.808594 70 71.785156 70.660156 73.503906 72.457031 73.503906 74.207031 73.503906 74.921875 71.75 74.921875 69.84375zM73.839844 69.910156C73.839844 72.050781 73.335938 73.101563 72.457031 73.101563 71.5625 73.101563 71.070313 72.03125 71.070313 69.867188 71.070313 67.65625 71.5625 66.597656 72.445313 66.597656 73.359375 66.597656 73.839844 67.644531 73.839844 69.910156M77.328125 72.832031C77.328125 72.464844 77.097656 72.140625 76.671875 72.140625 76.257813 72.140625 76.015625 72.453125 76.015625 72.820313 76.015625 73.203125 76.226563 73.46875 76.660156 73.46875 77.097656 73.46875 77.328125 73.179688 77.328125 72.832031M83.175781 71.59375L82.851563 71.59375C82.597656 72.265625 82.453125 72.5 81.859375 72.5L80.308594 72.5 79.527344 72.53125 79.527344 72.476563 81 71.082031C82.183594 69.886719 82.820313 69.117188 82.820313 68.125 82.820313 66.953125 81.9375 66.195313 80.679688 66.195313 79.59375 66.195313 78.835938 66.820313 78.492188 67.902344L78.757813 68.015625C79.171875 67.175781 79.664063 66.921875 80.386719 66.921875 81.246094 66.921875 81.78125 67.457031 81.78125 68.292969 81.78125 69.464844 81.222656 70.167969 80.121094 71.304688L78.421875 73 78.421875 73.378906 82.820313 73.378906 83.175781 71.59375" />
  <path d="M 870.859375 951.042187 L 907.96875 951.042187" transform="matrix(.1 0 0 -.1 0 145.78)" fill="none" stroke-width="7.97" stroke-linecap="round" stroke-linejoin="round" stroke="#000" stroke-miterlimit="10" />
  <path d="M74.921875 50.644531C74.921875 48.34375 73.917969 47.015625 72.476563 47.015625 70.859375 47.015625 70 48.492188 70 50.609375 70 52.585938 70.660156 54.304688 72.457031 54.304688 74.207031 54.304688 74.921875 52.550781 74.921875 50.644531zM73.839844 50.710938C73.839844 52.851563 73.335938 53.898438 72.457031 53.898438 71.5625 53.898438 71.070313 52.828125 71.070313 50.664063 71.070313 48.457031 71.5625 47.398438 72.445313 47.398438 73.359375 47.398438 73.839844 48.445313 73.839844 50.710938M77.328125 53.632813C77.328125 53.265625 77.097656 52.941406 76.671875 52.941406 76.257813 52.941406 76.015625 53.253906 76.015625 53.621094 76.015625 54 76.226563 54.269531 76.660156 54.269531 77.097656 54.269531 77.328125 53.976563 77.328125 53.632813M78.960938 48.625C79.339844 48.03125 79.75 47.71875 80.421875 47.71875 81.113281 47.71875 81.558594 48.101563 81.558594 48.757813 81.558594 49.660156 80.765625 50.273438 80.007813 50.273438L79.796875 50.273438 79.796875 50.699219 80.019531 50.699219C81.089844 50.699219 82.039063 51.359375 82.039063 52.351563 82.039063 53.445313 81.359375 53.765625 80.65625 53.765625 80.386719 53.765625 80.230469 53.722656 79.75 53.476563 79.359375 53.277344 79.273438 53.21875 79.09375 53.21875 78.804688 53.21875 78.65625 53.476563 78.65625 53.710938 78.65625 54 78.902344 54.324219 79.90625 54.324219 81.535156 54.324219 82.953125 53.542969 82.953125 52.015625 82.953125 51.023438 82.207031 50.429688 81.3125 50.152344L81.3125 50.117188C82.015625 49.671875 82.519531 49.257813 82.519531 48.492188 82.519531 47.640625 81.859375 46.996094 80.722656 46.996094 79.808594 46.996094 79.117188 47.507813 78.703125 48.476563L78.960938 48.625" />
  <path d="M 870.859375 1142.409375 L 907.96875 1142.409375" transform="matrix(.1 0 0 -.1 0 145.78)" fill="none" stroke-width="7.97" stroke-linecap="round" stroke-linejoin="round" stroke="#000" stroke-miterlimit="10" />
  <path d="M74.921875 31.542969C74.921875 29.246094 73.917969 27.917969 72.476563 27.917969 70.859375 27.917969 70 29.390625 70 31.511719 70 33.484375 70.660156 35.203125 72.457031 35.203125 74.207031 35.203125 74.921875 33.453125 74.921875 31.542969zM73.839844 31.609375C73.839844 33.753906 73.335938 34.800781 72.457031 34.800781 71.5625 34.800781 71.070313 33.730469 71.070313 31.566406 71.070313 29.355469 71.5625 28.296875 72.445313 28.296875 73.359375 28.296875 73.839844 29.347656 73.839844 31.609375M77.328125 34.53125C77.328125 34.164063 77.097656 33.839844 76.671875 33.839844 76.257813 33.839844 76.015625 34.152344 76.015625 34.523438 76.015625 34.902344 76.226563 35.167969 76.660156 35.167969 77.097656 35.167969 77.328125 34.878906 77.328125 34.53125M83.367188 33.316406L83.367188 32.546875 82.226563 32.546875 82.226563 27.886719 81.546875 27.886719 78.144531 32.613281 78.144531 33.316406 81.234375 33.316406 81.234375 35.078125 82.226563 35.078125 82.226563 33.316406zM81.234375 32.546875L78.757813 32.546875 78.757813 32.503906 81.191406 29.101563 81.234375 29.101563 81.234375 32.546875" />
  <path d="M851.171875 376.979687L851.171875 386.55M812.890625 376.979687L812.890625 386.55M774.609375 376.979687L774.609375 386.55M736.328125 376.979687L736.328125 386.55M659.804688 376.979687L659.804688 386.55M621.523438 376.979687L621.523438 386.55M583.242188 376.979687L583.242188 386.55M544.960938 376.979687L544.960938 386.55M468.4375 376.979687L468.4375 386.55M430.15625 376.979687L430.15625 386.55M391.875 376.979687L391.875 386.55M353.59375 376.979687L353.59375 386.55M927.695313 376.979687L927.695313 386.55M965.976563 376.979687L965.976563 386.55M1004.257813 376.979687L1004.257813 386.55M1042.539063 376.979687L1042.539063 386.55M1119.0625 376.979687L1119.0625 386.55M1157.34375 376.979687L1157.34375 386.55M1195.625 376.979687L1195.625 386.55M1233.867188 376.979687L1233.867188 386.55M1310.429688 376.979687L1310.429688 386.55M1348.710938 376.979687L1348.710938 386.55M1386.992188 376.979687L1386.992188 386.55M1425.234375 376.979687L1425.234375 386.55" transform="matrix(.1 0 0 -.1 0 145.78)" fill="none" stroke-width="7.97" stroke-linecap="round" stroke-linejoin="round" stroke="#000" stroke-miterlimit="10" />
  <path d="M 315.351563 385.495312 L 326.953125 387.175 L 338.515625 389.128125 L 350.117188 391.39375 L 361.71875 394.05 L 373.320313 397.135937 L 384.921875 400.690625 L 396.523438 404.714062 L 408.085938 409.3625 L 419.6875 414.596875 L 431.289063 420.573437 L 442.890625 427.292187 L 454.492188 434.792187 L 466.09375 443.229687 L 477.65625 452.604687 L 489.257813 462.95625 L 500.859375 474.401562 L 512.460938 486.940625 L 524.0625 500.651562 L 535.664063 515.573437 L 547.226563 531.745312 L 558.828125 549.128125 L 570.429688 567.760937 L 582.03125 587.64375 L 593.632813 608.776562 L 605.234375 631.042187 L 616.796875 654.479687 L 628.398438 678.932812 L 640 704.3625 L 651.601563 730.6125 L 663.203125 757.526562 L 674.804688 785.065625 L 686.40625 812.95625 L 697.96875 841.042187 L 709.570313 869.167187 L 721.171875 897.057812 L 732.773438 924.479687 L 744.375 951.276562 L 755.9375 977.175 L 767.539063 1001.940625 L 779.140625 1025.339063 L 790.742188 1047.175 L 802.34375 1067.096875 L 813.945313 1085.104688 L 825.507813 1100.964063 L 837.109375 1114.3625 L 848.710938 1125.339063 L 860.3125 1133.620313 L 871.914063 1139.245313 L 883.515625 1142.01875 L 895.117188 1142.096875 L 906.679688 1139.323438 L 918.28125 1133.776563 L 929.882813 1125.495313 L 941.484375 1114.635938 L 953.085938 1101.2375 L 964.6875 1085.495313 L 976.25 1067.565625 L 987.851563 1047.604688 L 999.453125 1025.807813 L 1011.054688 1002.4875 L 1022.65625 977.760937 L 1034.257813 951.8625 L 1045.859375 925.104687 L 1057.421875 897.604687 L 1069.023438 869.753125 L 1092.226563 813.58125 L 1103.828125 785.690625 L 1115.390625 758.151562 L 1126.992188 731.159375 L 1138.59375 704.909375 L 1150.195313 679.479687 L 1161.796875 654.9875 L 1173.398438 631.55 L 1184.960938 609.245312 L 1196.5625 588.1125 L 1208.164063 568.190625 L 1219.765625 549.51875 L 1231.367188 532.096875 L 1242.96875 515.925 L 1254.53125 500.964062 L 1266.132813 487.253125 L 1277.734375 474.675 L 1289.335938 463.190625 L 1300.9375 452.8 L 1312.539063 443.425 L 1324.140625 434.9875 L 1335.703125 427.448437 L 1347.304688 420.690625 L 1358.90625 414.753125 L 1370.507813 409.440625 L 1382.109375 404.83125 L 1393.710938 400.76875 L 1405.273438 397.214062 L 1416.875 394.128125 L 1428.476563 391.471875 L 1440.078125 389.167187 L 1451.679688 387.214062 L 1463.28125 385.534375" transform="matrix(.1 0 0 -.1 0 145.78)" fill="none" stroke-width="11.955" stroke-linecap="round" stroke-linejoin="round" stroke="#000" stroke-miterlimit="10" />
  <path d="M96.316406 23.25L96.25 23.585938C96.996094 23.585938 97.230469 23.707031 97.109375 24.367188L96.117188 29.164063C95.9375 30.101563 95.769531 30.246094 94.921875 30.246094L94.855469 30.578125 97.957031 30.578125 98.023438 30.246094C97.121094 30.246094 96.917969 30.121094 97.109375 29.207031L97.5 27.300781C97.644531 27.34375 97.945313 27.390625 98.167969 27.390625 99.640625 27.390625 101.4375 26.722656 101.4375 24.789063 101.4375 23.617188 100.398438 23.25 99.027344 23.25zM98.222656 23.730469C98.46875 23.707031 98.59375 23.683594 98.828125 23.683594 99.953125 23.683594 100.355469 24.1875 100.355469 24.925781 100.355469 26.351563 99.40625 26.933594 98.125 26.933594 97.867188 26.933594 97.710938 26.910156 97.585938 26.886719L98.222656 23.730469M103.878906 27.722656C103.878906 30.175781 105.050781 31.929688 106.847656 32.855469L107.027344 32.542969C105.398438 31.472656 104.796875 29.964844 104.796875 27.722656 104.796875 25.503906 105.398438 24.007813 107.027344 22.925781L106.847656 22.636719C105.050781 23.550781 103.878906 25.289063 103.878906 27.722656M113.636719 28.503906L113.300781 28.503906C112.675781 29.742188 112.398438 30.121094 111.128906 30.121094L108.839844 30.121094 108.839844 30.066406 114.464844 23.5625 114.527344 23.25 109.105469 23.25 108.695313 25.089844 109.050781 25.089844C109.53125 23.851563 109.878906 23.71875 111.027344 23.71875L113.066406 23.71875 113.066406 23.761719 107.421875 30.257813 107.367188 30.578125 112.988281 30.578125 113.636719 28.503906M125.183594 30L125.183594 29.285156 120.242188 26.820313 125.183594 24.367188 125.183594 23.628906 118.726563 26.765625 118.726563 26.878906zM125.183594 31.761719L125.183594 31.003906 118.726563 31.003906 118.726563 31.761719 125.183594 31.761719M133.652344 30.578125L133.652344 30.265625C132.628906 30.265625 132.214844 30.066406 132.214844 29.519531L132.214844 23.453125 131.890625 23.453125 129.726563 24.0625 129.726563 24.433594C130.070313 24.320313 130.640625 24.253906 130.863281 24.253906 131.140625 24.253906 131.230469 24.410156 131.230469 24.800781L131.230469 29.519531C131.230469 30.078125 130.839844 30.265625 129.792969 30.265625L129.792969 30.578125 133.652344 30.578125M136.53125 30.03125C136.53125 29.664063 136.296875 29.339844 135.871094 29.339844 135.460938 29.339844 135.214844 29.652344 135.214844 30.023438 135.214844 30.402344 135.425781 30.667969 135.859375 30.667969 136.296875 30.667969 136.53125 30.378906 136.53125 30.03125M141.929688 23.375C139.53125 23.472656 137.800781 25.023438 137.800781 27.714844 137.800781 29.351563 138.527344 30.714844 140.1875 30.714844 141.59375 30.714844 142.398438 29.832031 142.398438 28.316406 142.398438 26.851563 141.605469 25.972656 140.390625 25.972656 139.8125 25.972656 139.398438 26.21875 138.941406 26.664063L138.863281 26.652344C139.140625 25.023438 140.390625 23.933594 141.953125 23.695313zM141.429688 28.40625C141.429688 29.820313 140.980469 30.324219 140.234375 30.324219 139.265625 30.324219 138.804688 29.328125 138.804688 27.945313 138.804688 26.976563 139.40625 26.617188 140.054688 26.617188 140.980469 26.617188 141.429688 27.398438 141.429688 28.40625M146.292969 27.722656C146.292969 25.289063 145.121094 23.550781 143.324219 22.636719L143.144531 22.925781C144.773438 24.007813 145.378906 25.503906 145.378906 27.722656 145.378906 29.964844 144.773438 31.472656 143.144531 32.542969L143.324219 32.855469C145.121094 31.929688 146.292969 30.175781 146.292969 27.722656" />
  <path d="M 1195.625 329.128125 L 1195.625 587.4875" transform="matrix(.1 0 0 -.1 0 145.78)" fill="none" stroke-width="7.97" stroke-linecap="round" stroke-linejoin="round" stroke="#000" stroke-miterlimit="10" />
  <path d="M117.351563 129.878906L117.351563 129.566406C116.328125 129.566406 115.914063 129.367188 115.914063 128.820313L115.914063 122.75 115.589844 122.75 113.425781 123.363281 113.425781 123.734375C113.773438 123.621094 114.339844 123.554688 114.5625 123.554688 114.84375 123.554688 114.929688 123.710938 114.929688 124.101563L114.929688 128.820313C114.929688 129.378906 114.539063 129.566406 113.492188 129.566406L113.492188 129.878906 117.351563 129.878906M120.230469 129.332031C120.230469 128.964844 119.996094 128.640625 119.570313 128.640625 119.160156 128.640625 118.914063 128.953125 118.914063 129.320313 118.914063 129.703125 119.128906 129.96875 119.5625 129.96875 119.996094 129.96875 120.230469 129.679688 120.230469 129.332031M125.53125 122.671875C123.132813 122.773438 121.402344 124.324219 121.402344 127.011719 121.402344 128.652344 122.128906 130.015625 123.789063 130.015625 125.195313 130.015625 125.996094 129.132813 125.996094 127.617188 125.996094 126.152344 125.207031 125.273438 123.992188 125.273438 123.410156 125.273438 122.996094 125.515625 122.539063 125.964844L122.464844 125.953125C122.742188 124.324219 123.992188 123.230469 125.550781 122.996094zM125.027344 127.703125C125.027344 129.121094 124.582031 129.625 123.835938 129.625 122.863281 129.625 122.40625 128.628906 122.40625 127.246094 122.40625 126.277344 123.007813 125.917969 123.65625 125.917969 124.582031 125.917969 125.027344 126.699219 125.027344 127.703125M179.050781 58.480469L179.050781 57.566406 171.035156 57.566406 171.035156 58.480469zM179.050781 61.226563L179.050781 60.324219 171.035156 60.324219 171.035156 61.226563 179.050781 61.226563" />
  <path d="M 203.761719 108.082031 L 203.761719 107.230469 L 204.339844 107.152344 L 204.921875 107.0625 L 205.5 106.96875 L 206.078125 106.867188 L 206.660156 106.757813 L 207.238281 106.640625 L 207.816406 106.511719 L 208.398438 106.375 L 208.976563 106.226563 L 209.558594 106.066406 L 210.136719 105.894531 L 210.714844 105.714844 L 211.296875 105.519531 L 211.875 105.308594 L 212.453125 105.085938 L 213.035156 104.847656 L 213.613281 104.589844 L 214.195313 104.320313 L 214.773438 104.03125 L 215.355469 103.726563 L 215.933594 103.398438 L 216.511719 103.054688 L 217.09375 102.6875 L 217.671875 102.300781 L 218.253906 101.890625 L 218.832031 101.460938 L 219.410156 101.003906 L 219.988281 100.523438 L 220.570313 100.019531 L 221.148438 99.488281 L 221.730469 98.929688 L 222.308594 98.34375 L 222.886719 97.730469 L 223.46875 97.089844 L 224.046875 96.421875 L 224.628906 95.71875 L 225.207031 94.988281 L 225.785156 94.230469 L 226.367188 93.4375 L 226.945313 92.617188 L 227.523438 91.761719 L 228.105469 90.878906 L 228.683594 89.960938 L 229.265625 89.015625 L 229.84375 88.035156 L 230.421875 87.027344 L 231.003906 85.988281 L 231.582031 84.917969 L 232.160156 83.816406 L 232.742188 82.6875 L 233.320313 81.53125 L 233.902344 80.347656 L 234.480469 79.136719 L 235.058594 77.902344 L 235.640625 76.644531 L 236.21875 75.363281 L 236.800781 74.058594 L 237.378906 72.738281 L 237.960938 71.398438 L 238.539063 70.042969 L 239.117188 68.675781 L 239.695313 67.292969 L 240.277344 65.90625 L 240.855469 64.507813 L 241.4375 63.101563 L 242.015625 61.699219 L 242.59375 60.292969 L 243.175781 58.886719 L 243.753906 57.488281 L 244.335938 56.101563 L 244.914063 54.722656 L 245.492188 53.355469 L 246.074219 52.007813 L 246.652344 50.675781 L 247.230469 49.367188 L 247.8125 48.085938 L 248.390625 46.832031 L 248.972656 45.609375 L 249.550781 44.421875 L 250.128906 43.269531 L 250.710938 42.15625 L 251.289063 41.085938 L 251.867188 40.0625 L 252.449219 39.089844 L 253.027344 38.15625 L 253.609375 37.285156 L 254.1875 36.46875 L 254.765625 35.703125 L 255.347656 35 L 255.925781 34.355469 L 256.507813 33.777344 L 257.085938 33.257813 L 257.664063 32.808594 L 258.246094 32.425781 L 258.824219 32.109375 L 259.402344 31.863281 L 259.984375 31.683594 L 260.5625 31.578125 L 261.144531 31.535156 L 261.171875 108.082031" fill="#62aadf" fill-opacity=".8" />
  <path d="M 1896.210938 376.979687 L 3327.1875 376.979687" transform="matrix(.1 0 0 -.1 0 145.78)" fill="none" stroke-width="7.97" stroke-linecap="round" stroke-linejoin="round" stroke="#000" stroke-miterlimit="10" />
  <use xlink:href="#svg307125379850tikz_00008v" transform="translate(184 105)" />
  <use xlink:href="#svg307125379850tikz_00008w" transform="translate(329 105)" />
  <path d="M 2611.71875 329.128125 L 2611.71875 1283.815625" transform="matrix(.1 0 0 -.1 0 145.78)" fill="none" stroke-width="7.97" stroke-linecap="round" stroke-linejoin="round" stroke="#000" stroke-miterlimit="10" />
  <use xlink:href="#svg307125379850tikz_00008x" transform="translate(258 12)" />
  <path d="M 263.621094 120.644531 C 263.621094 118.34375 262.617188 117.015625 261.179688 117.015625 C 259.5625 117.015625 258.703125 118.492188 258.703125 120.609375 C 258.703125 122.585938 259.359375 124.304688 261.15625 124.304688 C 262.90625 124.304688 263.621094 122.550781 263.621094 120.644531 Z M 262.539063 120.710938 C 262.539063 122.851563 262.039063 123.898438 261.15625 123.898438 C 260.261719 123.898438 259.773438 122.828125 259.773438 120.664063 C 259.773438 118.457031 260.261719 117.398438 261.144531 117.398438 C 262.058594 117.398438 262.539063 118.445313 262.539063 120.710938" />
  <path d="M 2037.617188 358.425 L 2037.617188 395.534375" transform="matrix(.1 0 0 -.1 0 145.78)" fill="none" stroke-width="7.97" stroke-linecap="round" stroke-linejoin="round" stroke="#000" stroke-miterlimit="10" />
  <path d="M197.691406 118.167969L204.339844 118.167969 204.339844 117.410156 197.691406 117.410156zM205.960938 115.125C206.339844 114.53125 206.753906 114.21875 207.421875 114.21875 208.113281 114.21875 208.558594 114.601563 208.558594 115.257813 208.558594 116.160156 207.765625 116.773438 207.007813 116.773438L206.796875 116.773438 206.796875 117.199219 207.019531 117.199219C208.089844 117.199219 209.039063 117.859375 209.039063 118.851563 209.039063 119.945313 208.359375 120.265625 207.65625 120.265625 207.386719 120.265625 207.230469 120.222656 206.753906 119.976563 206.359375 119.777344 206.273438 119.71875 206.09375 119.71875 205.804688 119.71875 205.65625 119.976563 205.65625 120.210938 205.65625 120.5 205.902344 120.824219 206.90625 120.824219 208.535156 120.824219 209.953125 120.042969 209.953125 118.515625 209.953125 117.523438 209.207031 116.929688 208.3125 116.652344L208.3125 116.617188C209.015625 116.171875 209.519531 115.757813 209.519531 114.992188 209.519531 114.140625 208.859375 113.496094 207.722656 113.496094 206.808594 113.496094 206.117188 114.007813 205.703125 114.976563L205.960938 115.125" />
  <path d="M 2228.945313 358.425 L 2228.945313 395.534375" transform="matrix(.1 0 0 -.1 0 145.78)" fill="none" stroke-width="7.97" stroke-linecap="round" stroke-linejoin="round" stroke="#000" stroke-miterlimit="10" />
  <path d="M216.792969 118.167969L223.441406 118.167969 223.441406 117.410156 216.792969 117.410156zM229.378906 118.894531L229.054688 118.894531C228.796875 119.5625 228.652344 119.796875 228.058594 119.796875L226.507813 119.796875 225.726563 119.832031 225.726563 119.777344 227.203125 118.382813C228.382813 117.1875 229.019531 116.417969 229.019531 115.425781 229.019531 114.253906 228.136719 113.496094 226.878906 113.496094 225.796875 113.496094 225.039063 114.121094 224.691406 115.203125L224.960938 115.3125C225.371094 114.476563 225.863281 114.21875 226.589844 114.21875 227.445313 114.21875 227.980469 114.757813 227.980469 115.59375 227.980469 116.765625 227.421875 117.46875 226.320313 118.605469L224.621094 120.300781 224.621094 120.679688 229.019531 120.679688 229.378906 118.894531" />
  <path d="M 2420.3125 358.425 L 2420.3125 395.534375" transform="matrix(.1 0 0 -.1 0 145.78)" fill="none" stroke-width="7.97" stroke-linecap="round" stroke-linejoin="round" stroke="#000" stroke-miterlimit="10" />
  <path d="M235.890625 118.167969L242.539063 118.167969 242.539063 117.410156 235.890625 117.410156zM248.054688 120.679688L248.054688 120.367188C247.027344 120.367188 246.613281 120.167969 246.613281 119.621094L246.613281 113.550781 246.289063 113.550781 244.125 114.164063 244.125 114.53125C244.472656 114.421875 245.039063 114.355469 245.265625 114.355469 245.542969 114.355469 245.632813 114.511719 245.632813 114.898438L245.632813 119.621094C245.632813 120.179688 245.242188 120.367188 244.191406 120.367188L244.191406 120.679688 248.054688 120.679688" />
  <path d="M 2803.046875 358.425 L 2803.046875 395.534375" transform="matrix(.1 0 0 -.1 0 145.78)" fill="none" stroke-width="7.97" stroke-linecap="round" stroke-linejoin="round" stroke="#000" stroke-miterlimit="10" />
  <path d="M 282.253906 120.679688 L 282.253906 120.367188 C 281.226563 120.367188 280.8125 120.167969 280.8125 119.621094 L 280.8125 113.550781 L 280.492188 113.550781 L 278.324219 114.164063 L 278.324219 114.53125 C 278.671875 114.421875 279.242188 114.355469 279.464844 114.355469 C 279.742188 114.355469 279.832031 114.511719 279.832031 114.898438 L 279.832031 119.621094 C 279.832031 120.179688 279.441406 120.367188 278.390625 120.367188 L 278.390625 120.679688 L 282.253906 120.679688" />
  <path d="M 2994.414063 358.425 L 2994.414063 395.534375" transform="matrix(.1 0 0 -.1 0 145.78)" fill="none" stroke-width="7.97" stroke-linecap="round" stroke-linejoin="round" stroke="#000" stroke-miterlimit="10" />
  <path d="M 301.878906 118.894531 L 301.554688 118.894531 C 301.296875 119.5625 301.152344 119.796875 300.558594 119.796875 L 299.007813 119.796875 L 298.226563 119.832031 L 298.226563 119.777344 L 299.703125 118.382813 C 300.882813 117.1875 301.519531 116.417969 301.519531 115.425781 C 301.519531 114.253906 300.636719 113.496094 299.378906 113.496094 C 298.296875 113.496094 297.539063 114.121094 297.191406 115.203125 L 297.460938 115.3125 C 297.871094 114.476563 298.363281 114.21875 299.089844 114.21875 C 299.945313 114.21875 300.480469 114.757813 300.480469 115.59375 C 300.480469 116.765625 299.921875 117.46875 298.820313 118.605469 L 297.121094 120.300781 L 297.121094 120.679688 L 301.519531 120.679688 L 301.878906 118.894531" />
  <path d="M 3185.742188 358.425 L 3185.742188 395.534375" transform="matrix(.1 0 0 -.1 0 145.78)" fill="none" stroke-width="7.97" stroke-linecap="round" stroke-linejoin="round" stroke="#000" stroke-miterlimit="10" />
  <path d="M 316.757813 115.125 C 317.140625 114.53125 317.550781 114.21875 318.21875 114.21875 C 318.914063 114.21875 319.359375 114.601563 319.359375 115.257813 C 319.359375 116.160156 318.566406 116.773438 317.808594 116.773438 L 317.597656 116.773438 L 317.597656 117.199219 L 317.820313 117.199219 C 318.890625 117.199219 319.839844 117.859375 319.839844 118.851563 C 319.839844 119.945313 319.15625 120.265625 318.453125 120.265625 C 318.1875 120.265625 318.03125 120.222656 317.550781 119.976563 C 317.160156 119.777344 317.070313 119.71875 316.894531 119.71875 C 316.601563 119.71875 316.457031 119.976563 316.457031 120.210938 C 316.457031 120.5 316.703125 120.824219 317.707031 120.824219 C 319.335938 120.824219 320.753906 120.042969 320.753906 118.515625 C 320.753906 117.523438 320.007813 116.929688 319.113281 116.652344 L 319.113281 116.617188 C 319.816406 116.171875 320.320313 115.757813 320.320313 114.992188 C 320.320313 114.140625 319.660156 113.496094 318.523438 113.496094 C 317.609375 113.496094 316.914063 114.007813 316.503906 114.976563 L 316.757813 115.125" />
  <path d="M 2593.125 568.346875 L 2630.234375 568.346875" transform="matrix(.1 0 0 -.1 0 145.78)" fill="none" stroke-width="7.97" stroke-linecap="round" stroke-linejoin="round" stroke="#000" stroke-miterlimit="10" />
  <path d="M247.121094 88.945313C247.121094 86.644531 246.117188 85.316406 244.679688 85.316406 243.0625 85.316406 242.203125 86.789063 242.203125 88.910156 242.203125 90.882813 242.859375 92.601563 244.65625 92.601563 246.40625 92.601563 247.121094 90.851563 247.121094 88.945313zM246.039063 89.007813C246.039063 91.152344 245.539063 92.199219 244.65625 92.199219 243.761719 92.199219 243.273438 91.128906 243.273438 88.964844 243.273438 86.757813 243.761719 85.695313 244.644531 85.695313 245.558594 85.695313 246.039063 86.746094 246.039063 89.007813M249.53125 91.933594C249.53125 91.566406 249.296875 91.242188 248.871094 91.242188 248.460938 91.242188 248.214844 91.554688 248.214844 91.921875 248.214844 92.300781 248.425781 92.570313 248.859375 92.570313 249.296875 92.570313 249.53125 92.277344 249.53125 91.933594M254.953125 92.480469L254.953125 92.167969C253.925781 92.167969 253.515625 91.96875 253.515625 91.421875L253.515625 85.351563 253.191406 85.351563 251.023438 85.964844 251.023438 86.332031C251.371094 86.21875 251.941406 86.15625 252.164063 86.15625 252.441406 86.15625 252.53125 86.3125 252.53125 86.699219L252.53125 91.421875C252.53125 91.976563 252.140625 92.167969 251.09375 92.167969L251.09375 92.480469 254.953125 92.480469" />
  <path d="M 2593.125 759.714062 L 2630.234375 759.714062" transform="matrix(.1 0 0 -.1 0 145.78)" fill="none" stroke-width="7.97" stroke-linecap="round" stroke-linejoin="round" stroke="#000" stroke-miterlimit="10" />
  <path d="M247.121094 69.84375C247.121094 67.546875 246.117188 66.21875 244.679688 66.21875 243.0625 66.21875 242.203125 67.691406 242.203125 69.808594 242.203125 71.785156 242.859375 73.503906 244.65625 73.503906 246.40625 73.503906 247.121094 71.75 247.121094 69.84375zM246.039063 69.910156C246.039063 72.050781 245.539063 73.101563 244.65625 73.101563 243.761719 73.101563 243.273438 72.03125 243.273438 69.867188 243.273438 67.65625 243.761719 66.597656 244.644531 66.597656 245.558594 66.597656 246.039063 67.644531 246.039063 69.910156M249.53125 72.832031C249.53125 72.464844 249.296875 72.140625 248.871094 72.140625 248.460938 72.140625 248.214844 72.453125 248.214844 72.820313 248.214844 73.203125 248.425781 73.46875 248.859375 73.46875 249.296875 73.46875 249.53125 73.179688 249.53125 72.832031M255.378906 71.59375L255.054688 71.59375C254.796875 72.265625 254.652344 72.5 254.058594 72.5L252.507813 72.5 251.726563 72.53125 251.726563 72.476563 253.203125 71.082031C254.382813 69.886719 255.019531 69.117188 255.019531 68.125 255.019531 66.953125 254.136719 66.195313 252.878906 66.195313 251.796875 66.195313 251.039063 66.820313 250.691406 67.902344L250.960938 68.015625C251.371094 67.175781 251.863281 66.921875 252.589844 66.921875 253.445313 66.921875 253.980469 67.457031 253.980469 68.292969 253.980469 69.464844 253.421875 70.167969 252.320313 71.304688L250.621094 73 250.621094 73.378906 255.019531 73.378906 255.378906 71.59375" />
  <path d="M 2593.125 951.042187 L 2630.234375 951.042187" transform="matrix(.1 0 0 -.1 0 145.78)" fill="none" stroke-width="7.97" stroke-linecap="round" stroke-linejoin="round" stroke="#000" stroke-miterlimit="10" />
  <path d="M247.121094 50.644531C247.121094 48.34375 246.117188 47.015625 244.679688 47.015625 243.0625 47.015625 242.203125 48.492188 242.203125 50.609375 242.203125 52.585938 242.859375 54.304688 244.65625 54.304688 246.40625 54.304688 247.121094 52.550781 247.121094 50.644531zM246.039063 50.710938C246.039063 52.851563 245.539063 53.898438 244.65625 53.898438 243.761719 53.898438 243.273438 52.828125 243.273438 50.664063 243.273438 48.457031 243.761719 47.398438 244.644531 47.398438 245.558594 47.398438 246.039063 48.445313 246.039063 50.710938M249.53125 53.632813C249.53125 53.265625 249.296875 52.941406 248.871094 52.941406 248.460938 52.941406 248.214844 53.253906 248.214844 53.621094 248.214844 54 248.425781 54.269531 248.859375 54.269531 249.296875 54.269531 249.53125 53.976563 249.53125 53.632813M251.160156 48.625C251.539063 48.03125 251.953125 47.71875 252.621094 47.71875 253.3125 47.71875 253.757813 48.101563 253.757813 48.757813 253.757813 49.660156 252.96875 50.273438 252.207031 50.273438L251.996094 50.273438 251.996094 50.699219 252.21875 50.699219C253.289063 50.699219 254.238281 51.359375 254.238281 52.351563 254.238281 53.445313 253.558594 53.765625 252.855469 53.765625 252.589844 53.765625 252.429688 53.722656 251.953125 53.476563 251.5625 53.277344 251.472656 53.21875 251.292969 53.21875 251.003906 53.21875 250.859375 53.476563 250.859375 53.710938 250.859375 54 251.101563 54.324219 252.109375 54.324219 253.734375 54.324219 255.152344 53.542969 255.152344 52.015625 255.152344 51.023438 254.40625 50.429688 253.515625 50.152344L253.515625 50.117188C254.214844 49.671875 254.71875 49.257813 254.71875 48.492188 254.71875 47.640625 254.058594 46.996094 252.921875 46.996094 252.007813 46.996094 251.316406 47.507813 250.902344 48.476563L251.160156 48.625" />
  <path d="M 2593.125 1142.409375 L 2630.234375 1142.409375" transform="matrix(.1 0 0 -.1 0 145.78)" fill="none" stroke-width="7.97" stroke-linecap="round" stroke-linejoin="round" stroke="#000" stroke-miterlimit="10" />
  <path d="M247.121094 31.542969C247.121094 29.246094 246.117188 27.917969 244.679688 27.917969 243.0625 27.917969 242.203125 29.390625 242.203125 31.511719 242.203125 33.484375 242.859375 35.203125 244.65625 35.203125 246.40625 35.203125 247.121094 33.453125 247.121094 31.542969zM246.039063 31.609375C246.039063 33.753906 245.539063 34.800781 244.65625 34.800781 243.761719 34.800781 243.273438 33.730469 243.273438 31.566406 243.273438 29.355469 243.761719 28.296875 244.644531 28.296875 245.558594 28.296875 246.039063 29.347656 246.039063 31.609375M249.53125 34.53125C249.53125 34.164063 249.296875 33.839844 248.871094 33.839844 248.460938 33.839844 248.214844 34.152344 248.214844 34.523438 248.214844 34.902344 248.425781 35.167969 248.859375 35.167969 249.296875 35.167969 249.53125 34.878906 249.53125 34.53125M255.566406 33.316406L255.566406 32.546875 254.429688 32.546875 254.429688 27.886719 253.746094 27.886719 250.34375 32.613281 250.34375 33.316406 253.4375 33.316406 253.4375 35.078125 254.429688 35.078125 254.429688 33.316406zM253.4375 32.546875L250.960938 32.546875 250.960938 32.503906 253.390625 29.101563 253.4375 29.101563 253.4375 32.546875" />
  <path d="M2573.4375 376.979687L2573.4375 386.55M2535.15625 376.979687L2535.15625 386.55M2496.875 376.979687L2496.875 386.55M2458.59375 376.979687L2458.59375 386.55M2382.070313 376.979687L2382.070313 386.55M2343.789063 376.979687L2343.789063 386.55M2305.507813 376.979687L2305.507813 386.55M2267.265625 376.979687L2267.265625 386.55M2190.703125 376.979687L2190.703125 386.55M2152.421875 376.979687L2152.421875 386.55M2114.140625 376.979687L2114.140625 386.55M2075.898438 376.979687L2075.898438 386.55M2649.960938 376.979687L2649.960938 386.55M2688.242188 376.979687L2688.242188 386.55M2726.523438 376.979687L2726.523438 386.55M2764.804688 376.979687L2764.804688 386.55M2841.328125 376.979687L2841.328125 386.55M2879.609375 376.979687L2879.609375 386.55M2917.890625 376.979687L2917.890625 386.55M2956.171875 376.979687L2956.171875 386.55M3032.695313 376.979687L3032.695313 386.55M3070.976563 376.979687L3070.976563 386.55M3109.257813 376.979687L3109.257813 386.55M3147.539063 376.979687L3147.539063 386.55" transform="matrix(.1 0 0 -.1 0 145.78)" fill="none" stroke-width="7.97" stroke-linecap="round" stroke-linejoin="round" stroke="#000" stroke-miterlimit="10" />
  <path d="M 2037.617188 385.495312 L 2049.21875 387.175 L 2060.78125 389.128125 L 2072.382813 391.39375 L 2083.984375 394.05 L 2095.585938 397.135937 L 2107.1875 400.690625 L 2118.789063 404.714062 L 2130.351563 409.3625 L 2141.953125 414.596875 L 2153.554688 420.573437 L 2165.15625 427.292187 L 2176.757813 434.792187 L 2188.359375 443.229687 L 2199.960938 452.604687 L 2211.523438 462.95625 L 2223.125 474.401562 L 2234.726563 486.940625 L 2246.328125 500.651562 L 2257.929688 515.573437 L 2269.53125 531.745312 L 2281.09375 549.128125 L 2292.695313 567.760937 L 2304.296875 587.64375 L 2315.898438 608.776562 L 2327.5 631.042187 L 2339.101563 654.479687 L 2350.664063 678.932812 L 2362.265625 704.3625 L 2373.867188 730.6125 L 2385.46875 757.526562 L 2397.070313 785.065625 L 2408.671875 812.95625 L 2420.234375 841.042187 L 2431.835938 869.167187 L 2443.4375 897.057812 L 2455.039063 924.479687 L 2466.640625 951.276562 L 2478.242188 977.175 L 2489.804688 1001.940625 L 2501.40625 1025.339063 L 2513.007813 1047.175 L 2524.609375 1067.096875 L 2536.210938 1085.104688 L 2547.8125 1100.964063 L 2559.375 1114.3625 L 2570.976563 1125.339063 L 2582.578125 1133.620313 L 2594.179688 1139.245313 L 2605.78125 1142.01875 L 2617.382813 1142.096875 L 2628.984375 1139.323438 L 2640.546875 1133.776563 L 2652.148438 1125.495313 L 2663.75 1114.635938 L 2675.351563 1101.2375 L 2686.953125 1085.495313 L 2698.554688 1067.565625 L 2710.117188 1047.604688 L 2721.71875 1025.807813 L 2733.320313 1002.4875 L 2744.921875 977.760937 L 2756.523438 951.8625 L 2768.125 925.104687 L 2779.726563 897.604687 L 2791.289063 869.753125 L 2814.492188 813.58125 L 2826.09375 785.690625 L 2837.695313 758.151562 L 2849.296875 731.159375 L 2860.859375 704.909375 L 2872.460938 679.479687 L 2884.0625 654.9875 L 2895.664063 631.55 L 2907.265625 609.245312 L 2918.867188 588.1125 L 2930.429688 568.190625 L 2942.03125 549.51875 L 2953.632813 532.096875 L 2965.234375 515.925 L 2976.835938 500.964062 L 2988.4375 487.253125 L 3000.039063 474.675 L 3011.601563 463.190625 L 3023.203125 452.8 L 3034.804688 443.425 L 3046.40625 434.9875 L 3058.007813 427.448437 L 3069.609375 420.690625 L 3081.171875 414.753125 L 3092.773438 409.440625 L 3104.375 404.83125 L 3115.976563 400.76875 L 3127.578125 397.214062 L 3139.140625 394.128125 L 3150.742188 391.471875 L 3162.34375 389.167187 L 3173.945313 387.214062 L 3185.546875 385.534375" transform="matrix(.1 0 0 -.1 0 145.78)" fill="none" stroke-width="11.955" stroke-linecap="round" stroke-linejoin="round" stroke="#000" stroke-miterlimit="10" />
  <path d="M268.515625 23.25L268.449219 23.585938C269.195313 23.585938 269.429688 23.707031 269.308594 24.367188L268.316406 29.164063C268.136719 30.101563 267.96875 30.246094 267.121094 30.246094L267.054688 30.578125 270.15625 30.578125 270.222656 30.246094C269.320313 30.246094 269.117188 30.121094 269.308594 29.207031L269.699219 27.300781C269.84375 27.34375 270.144531 27.390625 270.367188 27.390625 271.839844 27.390625 273.636719 26.722656 273.636719 24.789063 273.636719 23.617188 272.601563 23.25 271.226563 23.25zM270.421875 23.730469C270.671875 23.707031 270.792969 23.683594 271.027344 23.683594 272.152344 23.683594 272.554688 24.1875 272.554688 24.925781 272.554688 26.351563 271.605469 26.933594 270.324219 26.933594 270.066406 26.933594 269.910156 26.910156 269.789063 26.886719L270.421875 23.730469M276.179688 27.722656C276.179688 30.175781 277.351563 31.929688 279.148438 32.855469L279.328125 32.542969C277.695313 31.472656 277.09375 29.964844 277.09375 27.722656 277.09375 25.503906 277.695313 24.007813 279.328125 22.925781L279.148438 22.636719C277.351563 23.550781 276.179688 25.289063 276.179688 27.722656M285.9375 28.503906L285.601563 28.503906C284.976563 29.742188 284.699219 30.121094 283.425781 30.121094L281.140625 30.121094 281.140625 30.066406 286.761719 23.5625 286.828125 23.25 281.40625 23.25 280.992188 25.089844 281.351563 25.089844C281.832031 23.851563 282.175781 23.71875 283.328125 23.71875L285.367188 23.71875 285.367188 23.761719 279.722656 30.257813 279.667969 30.578125 285.289063 30.578125 285.9375 28.503906M297.382813 30L297.382813 29.285156 292.441406 26.820313 297.382813 24.367188 297.382813 23.628906 290.925781 26.765625 290.925781 26.878906zM297.382813 31.761719L297.382813 31.003906 290.925781 31.003906 290.925781 31.761719 297.382813 31.761719M306.421875 27.042969C306.421875 24.746094 305.417969 23.417969 303.976563 23.417969 302.359375 23.417969 301.503906 24.890625 301.503906 27.011719 301.503906 28.984375 302.160156 30.703125 303.957031 30.703125 305.707031 30.703125 306.421875 28.953125 306.421875 27.042969zM305.339844 27.109375C305.339844 29.253906 304.839844 30.300781 303.957031 30.300781 303.0625 30.300781 302.570313 29.230469 302.570313 27.066406 302.570313 24.855469 303.0625 23.796875 303.945313 23.796875 304.859375 23.796875 305.339844 24.847656 305.339844 27.109375M310.191406 27.722656C310.191406 25.289063 309.019531 23.550781 307.226563 22.636719L307.046875 22.925781C308.675781 24.007813 309.277344 25.503906 309.277344 27.722656 309.277344 29.964844 308.675781 31.472656 307.046875 32.542969L307.226563 32.855469C309.019531 31.929688 310.191406 30.175781 310.191406 27.722656M351.25 60.652344L351.25 59.738281 347.726563 59.738281 347.726563 56.175781 346.757813 56.175781 346.757813 59.738281 343.234375 59.738281 343.234375 60.652344 346.757813 60.652344 346.757813 64.21875 347.726563 64.21875 347.726563 60.652344 351.25 60.652344" />
  <path d="M 433.398438 108.082031 L 433.398438 31.535156 L 433.707031 31.546875 L 434.015625 31.582031 L 434.324219 31.625 L 434.632813 31.699219 L 434.941406 31.789063 L 435.253906 31.894531 L 435.5625 32.027344 L 435.871094 32.175781 L 436.179688 32.339844 L 436.488281 32.53125 L 436.800781 32.738281 L 437.109375 32.964844 L 437.417969 33.207031 L 437.726563 33.46875 L 438.035156 33.753906 L 438.34375 34.054688 L 438.652344 34.367188 L 438.964844 34.707031 L 439.273438 35.0625 L 439.582031 35.429688 L 439.890625 35.816406 L 440.199219 36.222656 L 440.507813 36.644531 L 440.820313 37.078125 L 441.128906 37.535156 L 441.4375 38.003906 L 441.746094 38.484375 L 442.054688 38.984375 L 442.363281 39.492188 L 442.675781 40.023438 L 442.984375 40.558594 L 443.292969 41.113281 L 443.601563 41.679688 L 443.910156 42.257813 L 444.21875 42.851563 L 444.527344 43.449219 L 444.839844 44.0625 L 445.148438 44.6875 L 445.457031 45.324219 L 445.765625 45.964844 L 446.074219 46.621094 L 446.386719 47.28125 L 446.695313 47.953125 L 447.003906 48.632813 L 447.3125 49.320313 L 447.621094 50.011719 L 447.929688 50.710938 L 448.238281 51.417969 L 448.550781 52.132813 L 448.859375 52.851563 L 449.167969 53.574219 L 449.785156 55.035156 L 450.097656 55.773438 L 450.40625 56.511719 L 451.023438 57.996094 L 451.332031 58.742188 L 451.640625 59.492188 L 451.949219 60.238281 L 452.261719 60.988281 L 452.570313 61.742188 L 452.878906 62.488281 L 453.496094 63.988281 L 453.804688 64.734375 L 454.117188 65.480469 L 454.425781 66.226563 L 454.734375 66.96875 L 455.351563 68.445313 L 455.660156 69.175781 L 455.972656 69.90625 L 456.28125 70.632813 L 456.589844 71.355469 L 456.898438 72.070313 L 457.515625 73.492188 L 457.824219 74.191406 L 458.136719 74.886719 L 458.445313 75.578125 L 458.753906 76.265625 L 459.0625 76.941406 L 459.371094 77.613281 L 459.683594 78.277344 L 459.992188 78.933594 L 460.300781 79.585938 L 460.609375 80.230469 L 460.917969 80.867188 L 461.226563 81.496094 L 461.535156 82.117188 L 461.847656 82.730469 L 462.15625 83.332031 L 462.464844 83.929688 L 462.773438 84.519531 L 463.082031 85.101563 L 463.390625 85.671875 L 463.703125 86.234375 L 464.011719 86.789063 L 464.015625 108.082031" fill="#ed61ae" fill-opacity=".8" />
  <path d="M 3618.515625 376.979687 L 5049.453125 376.979687" transform="matrix(.1 0 0 -.1 0 145.78)" fill="none" stroke-width="7.97" stroke-linecap="round" stroke-linejoin="round" stroke="#000" stroke-miterlimit="10" />
  <use xlink:href="#svg307125379850tikz_00008y" transform="translate(356 105)" />
  <use xlink:href="#svg307125379850tikz_00008z" transform="translate(501 105)" />
  <path d="M 4333.984375 329.128125 L 4333.984375 1283.815625" transform="matrix(.1 0 0 -.1 0 145.78)" fill="none" stroke-width="7.97" stroke-linecap="round" stroke-linejoin="round" stroke="#000" stroke-miterlimit="10" />
  <use xlink:href="#svg307125379850tikz_00008A" transform="translate(430 12)" />
  <path d="M 435.820313 120.644531 C 435.820313 118.34375 434.816406 117.015625 433.378906 117.015625 C 431.761719 117.015625 430.902344 118.492188 430.902344 120.609375 C 430.902344 122.585938 431.558594 124.304688 433.355469 124.304688 C 435.109375 124.304688 435.820313 122.550781 435.820313 120.644531 Z M 434.738281 120.710938 C 434.738281 122.851563 434.238281 123.898438 433.355469 123.898438 C 432.464844 123.898438 431.972656 122.828125 431.972656 120.664063 C 431.972656 118.457031 432.464844 117.398438 433.34375 117.398438 C 434.257813 117.398438 434.738281 118.445313 434.738281 120.710938" />
  <path d="M 3759.84375 358.425 L 3759.84375 395.534375" transform="matrix(.1 0 0 -.1 0 145.78)" fill="none" stroke-width="7.97" stroke-linecap="round" stroke-linejoin="round" stroke="#000" stroke-miterlimit="10" />
  <path d="M369.890625 118.167969L376.539063 118.167969 376.539063 117.410156 369.890625 117.410156zM378.160156 115.125C378.539063 114.53125 378.953125 114.21875 379.621094 114.21875 380.3125 114.21875 380.757813 114.601563 380.757813 115.257813 380.757813 116.160156 379.96875 116.773438 379.207031 116.773438L378.996094 116.773438 378.996094 117.199219 379.21875 117.199219C380.289063 117.199219 381.238281 117.859375 381.238281 118.851563 381.238281 119.945313 380.558594 120.265625 379.855469 120.265625 379.589844 120.265625 379.429688 120.222656 378.953125 119.976563 378.5625 119.777344 378.472656 119.71875 378.292969 119.71875 378.003906 119.71875 377.859375 119.976563 377.859375 120.210938 377.859375 120.5 378.101563 120.824219 379.109375 120.824219 380.734375 120.824219 382.152344 120.042969 382.152344 118.515625 382.152344 117.523438 381.40625 116.929688 380.515625 116.652344L380.515625 116.617188C381.214844 116.171875 381.71875 115.757813 381.71875 114.992188 381.71875 114.140625 381.058594 113.496094 379.921875 113.496094 379.007813 113.496094 378.316406 114.007813 377.902344 114.976563L378.160156 115.125" />
  <path d="M 3951.210938 358.425 L 3951.210938 395.534375" transform="matrix(.1 0 0 -.1 0 145.78)" fill="none" stroke-width="7.97" stroke-linecap="round" stroke-linejoin="round" stroke="#000" stroke-miterlimit="10" />
  <path d="M388.992188 118.167969L395.640625 118.167969 395.640625 117.410156 388.992188 117.410156zM401.578125 118.894531L401.253906 118.894531C400.996094 119.5625 400.851563 119.796875 400.257813 119.796875L398.710938 119.796875 397.929688 119.832031 397.929688 119.777344 399.402344 118.382813C400.585938 117.1875 401.21875 116.417969 401.21875 115.425781 401.21875 114.253906 400.339844 113.496094 399.078125 113.496094 397.996094 113.496094 397.238281 114.121094 396.890625 115.203125L397.160156 115.3125C397.570313 114.476563 398.0625 114.21875 398.789063 114.21875 399.648438 114.21875 400.179688 114.757813 400.179688 115.59375 400.179688 116.765625 399.621094 117.46875 398.519531 118.605469L396.824219 120.300781 396.824219 120.679688 401.21875 120.679688 401.578125 118.894531" />
  <path d="M 4142.578125 358.425 L 4142.578125 395.534375" transform="matrix(.1 0 0 -.1 0 145.78)" fill="none" stroke-width="7.97" stroke-linecap="round" stroke-linejoin="round" stroke="#000" stroke-miterlimit="10" />
  <path d="M408.09375 118.167969L414.742188 118.167969 414.742188 117.410156 408.09375 117.410156zM420.253906 120.679688L420.253906 120.367188C419.226563 120.367188 418.8125 120.167969 418.8125 119.621094L418.8125 113.550781 418.492188 113.550781 416.324219 114.164063 416.324219 114.53125C416.671875 114.421875 417.242188 114.355469 417.464844 114.355469 417.742188 114.355469 417.832031 114.511719 417.832031 114.898438L417.832031 119.621094C417.832031 120.179688 417.441406 120.367188 416.390625 120.367188L416.390625 120.679688 420.253906 120.679688" />
  <path d="M 4525.273438 358.425 L 4525.273438 395.534375" transform="matrix(.1 0 0 -.1 0 145.78)" fill="none" stroke-width="7.97" stroke-linecap="round" stroke-linejoin="round" stroke="#000" stroke-miterlimit="10" />
  <path d="M 454.554688 120.679688 L 454.554688 120.367188 C 453.527344 120.367188 453.113281 120.167969 453.113281 119.621094 L 453.113281 113.550781 L 452.789063 113.550781 L 450.625 114.164063 L 450.625 114.53125 C 450.972656 114.421875 451.539063 114.355469 451.765625 114.355469 C 452.042969 114.355469 452.132813 114.511719 452.132813 114.898438 L 452.132813 119.621094 C 452.132813 120.179688 451.742188 120.367188 450.691406 120.367188 L 450.691406 120.679688 L 454.554688 120.679688" />
  <path d="M 4716.640625 358.425 L 4716.640625 395.534375" transform="matrix(.1 0 0 -.1 0 145.78)" fill="none" stroke-width="7.97" stroke-linecap="round" stroke-linejoin="round" stroke="#000" stroke-miterlimit="10" />
  <path d="M 474.078125 118.894531 L 473.753906 118.894531 C 473.496094 119.5625 473.351563 119.796875 472.757813 119.796875 L 471.210938 119.796875 L 470.429688 119.832031 L 470.429688 119.777344 L 471.902344 118.382813 C 473.085938 117.1875 473.71875 116.417969 473.71875 115.425781 C 473.71875 114.253906 472.839844 113.496094 471.578125 113.496094 C 470.496094 113.496094 469.738281 114.121094 469.390625 115.203125 L 469.660156 115.3125 C 470.070313 114.476563 470.5625 114.21875 471.289063 114.21875 C 472.148438 114.21875 472.679688 114.757813 472.679688 115.59375 C 472.679688 116.765625 472.121094 117.46875 471.019531 118.605469 L 469.324219 120.300781 L 469.324219 120.679688 L 473.71875 120.679688 L 474.078125 118.894531" />
  <path d="M 4908.007813 358.425 L 4908.007813 395.534375" transform="matrix(.1 0 0 -.1 0 145.78)" fill="none" stroke-width="7.97" stroke-linecap="round" stroke-linejoin="round" stroke="#000" stroke-miterlimit="10" />
  <path d="M 488.960938 115.125 C 489.339844 114.53125 489.753906 114.21875 490.421875 114.21875 C 491.113281 114.21875 491.558594 114.601563 491.558594 115.257813 C 491.558594 116.160156 490.765625 116.773438 490.007813 116.773438 L 489.796875 116.773438 L 489.796875 117.199219 L 490.019531 117.199219 C 491.089844 117.199219 492.039063 117.859375 492.039063 118.851563 C 492.039063 119.945313 491.359375 120.265625 490.65625 120.265625 C 490.386719 120.265625 490.230469 120.222656 489.753906 119.976563 C 489.359375 119.777344 489.273438 119.71875 489.09375 119.71875 C 488.804688 119.71875 488.65625 119.976563 488.65625 120.210938 C 488.65625 120.5 488.902344 120.824219 489.90625 120.824219 C 491.535156 120.824219 492.953125 120.042969 492.953125 118.515625 C 492.953125 117.523438 492.207031 116.929688 491.3125 116.652344 L 491.3125 116.617188 C 492.015625 116.171875 492.519531 115.757813 492.519531 114.992188 C 492.519531 114.140625 491.859375 113.496094 490.722656 113.496094 C 489.808594 113.496094 489.117188 114.007813 488.703125 114.976563 L 488.960938 115.125" />
  <path d="M 4315.390625 568.346875 L 4352.460938 568.346875" transform="matrix(.1 0 0 -.1 0 145.78)" fill="none" stroke-width="7.97" stroke-linecap="round" stroke-linejoin="round" stroke="#000" stroke-miterlimit="10" />
  <path d="M419.421875 88.945313C419.421875 86.644531 418.417969 85.316406 416.976563 85.316406 415.359375 85.316406 414.503906 86.789063 414.503906 88.910156 414.503906 90.882813 415.160156 92.601563 416.957031 92.601563 418.707031 92.601563 419.421875 90.851563 419.421875 88.945313zM418.339844 89.007813C418.339844 91.152344 417.839844 92.199219 416.957031 92.199219 416.0625 92.199219 415.570313 91.128906 415.570313 88.964844 415.570313 86.757813 416.0625 85.695313 416.945313 85.695313 417.859375 85.695313 418.339844 86.746094 418.339844 89.007813M421.730469 91.933594C421.730469 91.566406 421.496094 91.242188 421.070313 91.242188 420.660156 91.242188 420.414063 91.554688 420.414063 91.921875 420.414063 92.300781 420.628906 92.570313 421.0625 92.570313 421.496094 92.570313 421.730469 92.277344 421.730469 91.933594M427.253906 92.480469L427.253906 92.167969C426.226563 92.167969 425.8125 91.96875 425.8125 91.421875L425.8125 85.351563 425.492188 85.351563 423.324219 85.964844 423.324219 86.332031C423.671875 86.21875 424.242188 86.15625 424.464844 86.15625 424.742188 86.15625 424.832031 86.3125 424.832031 86.699219L424.832031 91.421875C424.832031 91.976563 424.441406 92.167969 423.390625 92.167969L423.390625 92.480469 427.253906 92.480469" />
  <path d="M 4315.390625 759.714062 L 4352.460938 759.714062" transform="matrix(.1 0 0 -.1 0 145.78)" fill="none" stroke-width="7.97" stroke-linecap="round" stroke-linejoin="round" stroke="#000" stroke-miterlimit="10" />
  <path d="M419.421875 69.84375C419.421875 67.546875 418.417969 66.21875 416.976563 66.21875 415.359375 66.21875 414.503906 67.691406 414.503906 69.808594 414.503906 71.785156 415.160156 73.503906 416.957031 73.503906 418.707031 73.503906 419.421875 71.75 419.421875 69.84375zM418.339844 69.910156C418.339844 72.050781 417.839844 73.101563 416.957031 73.101563 416.0625 73.101563 415.570313 72.03125 415.570313 69.867188 415.570313 67.65625 416.0625 66.597656 416.945313 66.597656 417.859375 66.597656 418.339844 67.644531 418.339844 69.910156M421.730469 72.832031C421.730469 72.464844 421.496094 72.140625 421.070313 72.140625 420.660156 72.140625 420.414063 72.453125 420.414063 72.820313 420.414063 73.203125 420.628906 73.46875 421.0625 73.46875 421.496094 73.46875 421.730469 73.179688 421.730469 72.832031M427.675781 71.59375L427.351563 71.59375C427.097656 72.265625 426.953125 72.5 426.359375 72.5L424.808594 72.5 424.027344 72.53125 424.027344 72.476563 425.503906 71.082031C426.683594 69.886719 427.320313 69.117188 427.320313 68.125 427.320313 66.953125 426.4375 66.195313 425.179688 66.195313 424.09375 66.195313 423.339844 66.820313 422.992188 67.902344L423.257813 68.015625C423.671875 67.175781 424.164063 66.921875 424.886719 66.921875 425.746094 66.921875 426.28125 67.457031 426.28125 68.292969 426.28125 69.464844 425.722656 70.167969 424.621094 71.304688L422.921875 73 422.921875 73.378906 427.320313 73.378906 427.675781 71.59375" />
  <path d="M 4315.390625 951.042187 L 4352.460938 951.042187" transform="matrix(.1 0 0 -.1 0 145.78)" fill="none" stroke-width="7.97" stroke-linecap="round" stroke-linejoin="round" stroke="#000" stroke-miterlimit="10" />
  <path d="M419.421875 50.644531C419.421875 48.34375 418.417969 47.015625 416.976563 47.015625 415.359375 47.015625 414.503906 48.492188 414.503906 50.609375 414.503906 52.585938 415.160156 54.304688 416.957031 54.304688 418.707031 54.304688 419.421875 52.550781 419.421875 50.644531zM418.339844 50.710938C418.339844 52.851563 417.839844 53.898438 416.957031 53.898438 416.0625 53.898438 415.570313 52.828125 415.570313 50.664063 415.570313 48.457031 416.0625 47.398438 416.945313 47.398438 417.859375 47.398438 418.339844 48.445313 418.339844 50.710938M421.730469 53.632813C421.730469 53.265625 421.496094 52.941406 421.070313 52.941406 420.660156 52.941406 420.414063 53.253906 420.414063 53.621094 420.414063 54 420.628906 54.269531 421.0625 54.269531 421.496094 54.269531 421.730469 53.976563 421.730469 53.632813M423.460938 48.625C423.839844 48.03125 424.253906 47.71875 424.921875 47.71875 425.613281 47.71875 426.058594 48.101563 426.058594 48.757813 426.058594 49.660156 425.265625 50.273438 424.507813 50.273438L424.296875 50.273438 424.296875 50.699219 424.519531 50.699219C425.589844 50.699219 426.539063 51.359375 426.539063 52.351563 426.539063 53.445313 425.859375 53.765625 425.15625 53.765625 424.886719 53.765625 424.730469 53.722656 424.253906 53.476563 423.859375 53.277344 423.773438 53.21875 423.59375 53.21875 423.304688 53.21875 423.15625 53.476563 423.15625 53.710938 423.15625 54 423.402344 54.324219 424.40625 54.324219 426.035156 54.324219 427.453125 53.542969 427.453125 52.015625 427.453125 51.023438 426.707031 50.429688 425.8125 50.152344L425.8125 50.117188C426.515625 49.671875 427.019531 49.257813 427.019531 48.492188 427.019531 47.640625 426.359375 46.996094 425.222656 46.996094 424.308594 46.996094 423.617188 47.507813 423.203125 48.476563L423.460938 48.625" />
  <path d="M 4315.390625 1142.409375 L 4352.460938 1142.409375" transform="matrix(.1 0 0 -.1 0 145.78)" fill="none" stroke-width="7.97" stroke-linecap="round" stroke-linejoin="round" stroke="#000" stroke-miterlimit="10" />
  <path d="M419.421875 31.542969C419.421875 29.246094 418.417969 27.917969 416.976563 27.917969 415.359375 27.917969 414.503906 29.390625 414.503906 31.511719 414.503906 33.484375 415.160156 35.203125 416.957031 35.203125 418.707031 35.203125 419.421875 33.453125 419.421875 31.542969zM418.339844 31.609375C418.339844 33.753906 417.839844 34.800781 416.957031 34.800781 416.0625 34.800781 415.570313 33.730469 415.570313 31.566406 415.570313 29.355469 416.0625 28.296875 416.945313 28.296875 417.859375 28.296875 418.339844 29.347656 418.339844 31.609375M421.730469 34.53125C421.730469 34.164063 421.496094 33.839844 421.070313 33.839844 420.660156 33.839844 420.414063 34.152344 420.414063 34.523438 420.414063 34.902344 420.628906 35.167969 421.0625 35.167969 421.496094 35.167969 421.730469 34.878906 421.730469 34.53125M427.867188 33.316406L427.867188 32.546875 426.726563 32.546875 426.726563 27.886719 426.046875 27.886719 422.644531 32.613281 422.644531 33.316406 425.734375 33.316406 425.734375 35.078125 426.726563 35.078125 426.726563 33.316406zM425.734375 32.546875L423.257813 32.546875 423.257813 32.503906 425.691406 29.101563 425.734375 29.101563 425.734375 32.546875" />
  <path d="M4295.703125 376.979687L4295.703125 386.55M4257.421875 376.979687L4257.421875 386.55M4219.140625 376.979687L4219.140625 386.55M4180.898438 376.979687L4180.898438 386.55M4104.335938 376.979687L4104.335938 386.55M4066.054688 376.979687L4066.054688 386.55M4027.773438 376.979687L4027.773438 386.55M3989.53125 376.979687L3989.53125 386.55M3912.96875 376.979687L3912.96875 386.55M3874.6875 376.979687L3874.6875 386.55M3836.445313 376.979687L3836.445313 386.55M3798.164063 376.979687L3798.164063 386.55M4372.265625 376.979687L4372.265625 386.55M4410.507813 376.979687L4410.507813 386.55M4448.789063 376.979687L4448.789063 386.55M4487.070313 376.979687L4487.070313 386.55M4563.59375 376.979687L4563.59375 386.55M4601.875 376.979687L4601.875 386.55M4640.15625 376.979687L4640.15625 386.55M4678.4375 376.979687L4678.4375 386.55M4754.960938 376.979687L4754.960938 386.55M4793.242188 376.979687L4793.242188 386.55M4831.523438 376.979687L4831.523438 386.55M4869.804688 376.979687L4869.804688 386.55" transform="matrix(.1 0 0 -.1 0 145.78)" fill="none" stroke-width="7.97" stroke-linecap="round" stroke-linejoin="round" stroke="#000" stroke-miterlimit="10" />
  <path d="M 3759.882813 385.495312 L 3771.484375 387.175 L 3783.085938 389.128125 L 3794.6875 391.39375 L 3806.289063 394.05 L 3817.851563 397.135937 L 3829.453125 400.690625 L 3841.054688 404.714062 L 3852.65625 409.3625 L 3864.257813 414.596875 L 3875.859375 420.573437 L 3887.421875 427.292187 L 3899.023438 434.792187 L 3910.625 443.229687 L 3922.226563 452.604687 L 3933.828125 462.95625 L 3945.390625 474.401562 L 3956.992188 486.940625 L 3968.59375 500.651562 L 3980.195313 515.573437 L 3991.796875 531.745312 L 4003.398438 549.128125 L 4014.960938 567.760937 L 4026.5625 587.64375 L 4038.164063 608.776562 L 4049.765625 631.042187 L 4061.367188 654.479687 L 4072.96875 678.932812 L 4084.53125 704.3625 L 4096.132813 730.6125 L 4107.734375 757.526562 L 4119.335938 785.065625 L 4130.9375 812.95625 L 4142.539063 841.042187 L 4154.101563 869.167187 L 4165.703125 897.057812 L 4177.304688 924.479687 L 4188.90625 951.276562 L 4200.507813 977.175 L 4212.109375 1001.940625 L 4223.671875 1025.339063 L 4235.273438 1047.175 L 4246.875 1067.096875 L 4258.476563 1085.104688 L 4270.078125 1100.964063 L 4281.679688 1114.3625 L 4293.242188 1125.339063 L 4304.84375 1133.620313 L 4316.445313 1139.245313 L 4328.046875 1142.01875 L 4339.648438 1142.096875 L 4351.25 1139.323438 L 4362.851563 1133.776563 L 4374.414063 1125.495313 L 4386.015625 1114.635938 L 4397.617188 1101.2375 L 4409.21875 1085.495313 L 4420.820313 1067.565625 L 4432.421875 1047.604688 L 4443.984375 1025.807813 L 4455.585938 1002.4875 L 4467.1875 977.760937 L 4478.789063 951.8625 L 4490.390625 925.104687 L 4501.992188 897.604687 L 4513.554688 869.753125 L 4536.757813 813.58125 L 4548.359375 785.690625 L 4559.960938 758.151562 L 4571.5625 731.159375 L 4583.125 704.909375 L 4594.726563 679.479687 L 4606.328125 654.9875 L 4617.929688 631.55 L 4629.53125 609.245312 L 4641.132813 588.1125 L 4652.695313 568.190625 L 4664.296875 549.51875 L 4675.898438 532.096875 L 4687.5 515.925 L 4699.101563 500.964062 L 4710.703125 487.253125 L 4722.304688 474.675 L 4733.867188 463.190625 L 4745.46875 452.8 L 4757.070313 443.425 L 4768.671875 434.9875 L 4780.273438 427.448437 L 4791.875 420.690625 L 4803.4375 414.753125 L 4815.039063 409.440625 L 4826.640625 404.83125 L 4838.242188 400.76875 L 4849.84375 397.214062 L 4861.445313 394.128125 L 4873.007813 391.471875 L 4884.609375 389.167187 L 4896.210938 387.214062 L 4907.8125 385.534375" transform="matrix(.1 0 0 -.1 0 145.78)" fill="none" stroke-width="11.955" stroke-linecap="round" stroke-linejoin="round" stroke="#000" stroke-miterlimit="10" />
  <path d="M440.71875 23.25L440.648438 23.585938C441.398438 23.585938 441.632813 23.707031 441.507813 24.367188L440.515625 29.164063C440.339844 30.101563 440.171875 30.246094 439.320313 30.246094L439.253906 30.578125 442.355469 30.578125 442.421875 30.246094C441.519531 30.246094 441.320313 30.121094 441.507813 29.207031L441.898438 27.300781C442.042969 27.34375 442.34375 27.390625 442.570313 27.390625 444.039063 27.390625 445.839844 26.722656 445.839844 24.789063 445.839844 23.617188 444.800781 23.25 443.429688 23.25zM442.621094 23.730469C442.871094 23.707031 442.992188 23.683594 443.226563 23.683594 444.351563 23.683594 444.753906 24.1875 444.753906 24.925781 444.753906 26.351563 443.804688 26.933594 442.523438 26.933594 442.265625 26.933594 442.109375 26.910156 441.988281 26.886719L442.621094 23.730469M448.378906 27.722656C448.378906 30.175781 449.550781 31.929688 451.347656 32.855469L451.527344 32.542969C449.898438 31.472656 449.296875 29.964844 449.296875 27.722656 449.296875 25.503906 449.898438 24.007813 451.527344 22.925781L451.347656 22.636719C449.550781 23.550781 448.378906 25.289063 448.378906 27.722656M457.121094 27.042969C457.121094 24.746094 456.117188 23.417969 454.679688 23.417969 453.0625 23.417969 452.203125 24.890625 452.203125 27.011719 452.203125 28.984375 452.859375 30.703125 454.65625 30.703125 456.40625 30.703125 457.121094 28.953125 457.121094 27.042969zM456.039063 27.109375C456.039063 29.253906 455.539063 30.300781 454.65625 30.300781 453.761719 30.300781 453.273438 29.230469 453.273438 27.066406 453.273438 24.855469 453.761719 23.796875 454.644531 23.796875 455.558594 23.796875 456.039063 24.847656 456.039063 27.109375M467.683594 30L467.683594 29.285156 462.742188 26.820313 467.683594 24.367188 467.683594 23.628906 461.226563 26.765625 461.226563 26.878906zM467.683594 31.761719L467.683594 31.003906 461.226563 31.003906 461.226563 31.761719 467.683594 31.761719M477.734375 28.503906L477.402344 28.503906C476.777344 29.742188 476.496094 30.121094 475.226563 30.121094L472.9375 30.121094 472.9375 30.066406 478.5625 23.5625 478.628906 23.25 473.207031 23.25 472.792969 25.089844 473.152344 25.089844C473.632813 23.851563 473.976563 23.71875 475.128906 23.71875L477.167969 23.71875 477.167969 23.761719 471.523438 30.257813 471.46875 30.578125 477.089844 30.578125 477.734375 28.503906M489.285156 30L489.285156 29.285156 484.34375 26.820313 489.285156 24.367188 489.285156 23.628906 482.824219 26.765625 482.824219 26.878906zM489.285156 31.761719L489.285156 31.003906 482.824219 31.003906 482.824219 31.761719 489.285156 31.761719M497.753906 30.578125L497.753906 30.265625C496.726563 30.265625 496.3125 30.066406 496.3125 29.519531L496.3125 23.453125 495.992188 23.453125 493.824219 24.0625 493.824219 24.433594C494.171875 24.320313 494.742188 24.253906 494.964844 24.253906 495.242188 24.253906 495.332031 24.410156 495.332031 24.800781L495.332031 29.519531C495.332031 30.078125 494.941406 30.265625 493.890625 30.265625L493.890625 30.578125 497.753906 30.578125M500.628906 30.03125C500.628906 29.664063 500.398438 29.339844 499.972656 29.339844 499.558594 29.339844 499.3125 29.652344 499.3125 30.023438 499.3125 30.402344 499.527344 30.667969 499.960938 30.667969 500.398438 30.667969 500.628906 30.378906 500.628906 30.03125M505.929688 23.375C503.53125 23.472656 501.800781 25.023438 501.800781 27.714844 501.800781 29.351563 502.527344 30.714844 504.1875 30.714844 505.59375 30.714844 506.398438 29.832031 506.398438 28.316406 506.398438 26.851563 505.605469 25.972656 504.390625 25.972656 503.8125 25.972656 503.398438 26.21875 502.941406 26.664063L502.863281 26.652344C503.140625 25.023438 504.390625 23.933594 505.953125 23.695313zM505.429688 28.40625C505.429688 29.820313 504.980469 30.324219 504.234375 30.324219 503.265625 30.324219 502.804688 29.328125 502.804688 27.945313 502.804688 26.976563 503.40625 26.617188 504.054688 26.617188 504.980469 26.617188 505.429688 27.398438 505.429688 28.40625M510.390625 27.722656C510.390625 25.289063 509.21875 23.550781 507.425781 22.636719L507.246094 22.925781C508.875 24.007813 509.476563 25.503906 509.476563 27.722656 509.476563 29.964844 508.875 31.472656 507.246094 32.542969L507.425781 32.855469C509.21875 31.929688 510.390625 30.175781 510.390625 27.722656" />
  <path d="M 4640.15625 329.128125 L 4640.15625 597.057812" transform="matrix(.1 0 0 -.1 0 145.78)" fill="none" stroke-width="7.97" stroke-linecap="round" stroke-linejoin="round" stroke="#000" stroke-miterlimit="10" />
  <path d="M461.851563 129.878906L461.851563 129.566406C460.828125 129.566406 460.414063 129.367188 460.414063 128.820313L460.414063 122.75 460.089844 122.75 457.925781 123.363281 457.925781 123.734375C458.273438 123.621094 458.839844 123.554688 459.0625 123.554688 459.34375 123.554688 459.429688 123.710938 459.429688 124.101563L459.429688 128.820313C459.429688 129.378906 459.039063 129.566406 457.992188 129.566406L457.992188 129.878906 461.851563 129.878906M464.628906 129.332031C464.628906 128.964844 464.398438 128.640625 463.972656 128.640625 463.558594 128.640625 463.3125 128.953125 463.3125 129.320313 463.3125 129.703125 463.527344 129.96875 463.960938 129.96875 464.398438 129.96875 464.628906 129.679688 464.628906 129.332031M470.03125 122.671875C467.632813 122.773438 465.902344 124.324219 465.902344 127.011719 465.902344 128.652344 466.628906 130.015625 468.289063 130.015625 469.695313 130.015625 470.496094 129.132813 470.496094 127.617188 470.496094 126.152344 469.707031 125.273438 468.492188 125.273438 467.910156 125.273438 467.496094 125.515625 467.039063 125.964844L466.964844 125.953125C467.242188 124.324219 468.492188 123.230469 470.050781 122.996094zM469.527344 127.703125C469.527344 129.121094 469.082031 129.625 468.335938 129.625 467.363281 129.625 466.90625 128.628906 466.90625 127.246094 466.90625 126.277344 467.507813 125.917969 468.15625 125.917969 469.082031 125.917969 469.527344 126.699219 469.527344 127.703125" />
</svg>